HIERARCHY
ROOT hip
{
  OFFSET 0 0 0
  CHANNELS 6 Xposition Yposition Zposition Zrotation Yrotation Xrotation
  JOINT abdomen
  {
    OFFSET 0 20.6881 -0.73152
    CHANNELS 3 Zrotation Xrotation Yrotation
    JOINT chest
    {
      OFFSET 0 11.7043 -0.48768
      CHANNELS 3 Zrotation Xrotation Yrotation
      JOINT neck
      {
        OFFSET 0 22.1894 -2.19456
        CHANNELS 3 Zrotation Xrotation Yrotation
        JOINT head
        {
          OFFSET -0.24384 7.07133 1.2192
          CHANNELS 3 Zrotation Xrotation Yrotation
          JOINT leftEye
          {
            OFFSET 4.14528 8.04674 8.04672
            CHANNELS 3 Zrotation Xrotation Yrotation
            End Site
            {
              OFFSET 1 0 0
            }
          }
          JOINT rightEye
          {
            OFFSET -3.6576 8.04674 8.04672
            CHANNELS 3 Zrotation Xrotation Yrotation
            End Site
            {
              OFFSET 1 0 0
            }
          }
        }
      }
      JOINT rCollar
      {
        OFFSET -2.68224 19.2634 -4.8768
        CHANNELS 3 Zrotation Xrotation Yrotation
        JOINT rShldr
        {
          OFFSET -8.77824 -1.95073 1.46304
          CHANNELS 3 Zrotation Xrotation Yrotation
          JOINT rForeArm
          {
            OFFSET -28.1742 -1.7115 0.48768
            CHANNELS 3 Zrotation Xrotation Yrotation
            JOINT rHand
            {
              OFFSET -22.5879 0.773209 7.07136
              CHANNELS 3 Zrotation Xrotation Yrotation
              JOINT rThumb1
              {
                OFFSET -1.2192 -0.487915 3.41376
                CHANNELS 3 Zrotation Xrotation Yrotation
                JOINT rThumb2
                {
                  OFFSET -3.37035 -0.52449 3.41376
                  CHANNELS 3 Zrotation Xrotation Yrotation
                  End Site
                  {
                    OFFSET -1.78271 -1.18214 1.43049
                  }
                }
              }
              JOINT rIndex1
              {
                OFFSET -7.75947 0.938293 5.60832
                CHANNELS 3 Zrotation Xrotation Yrotation
                JOINT rIndex2
                {
                  OFFSET -2.54057 -0.884171 1.56538
                  CHANNELS 3 Zrotation Xrotation Yrotation
                  End Site
                  {
                    OFFSET -1.62519 -0.234802 1.16502
                  }
                }
              }
              JOINT rMid1
              {
                OFFSET -8.24714 1.18213 3.41376
                CHANNELS 3 Zrotation Xrotation Yrotation
                JOINT rMid2
                {
                  OFFSET -3.10165 -0.590103 1.0647
                  CHANNELS 3 Zrotation Xrotation Yrotation
                  End Site
                  {
                    OFFSET -2.48547 -0.328903 0.83742
                  }
                }
              }
              JOINT rRing1
              {
                OFFSET -8.82822 0.546677 1.51678
                CHANNELS 3 Zrotation Xrotation Yrotation
                JOINT rRing2
                {
                  OFFSET -2.60934 -0.819778 -0.0198488
                  CHANNELS 3 Zrotation Xrotation Yrotation
                  End Site
                  {
                    OFFSET -2.33842 -0.294052 0.168128
                  }
                }
              }
              JOINT rPinky1
              {
                OFFSET -8.27202 -0.0477905 -0.4584
                CHANNELS 3 Zrotation Xrotation Yrotation
                JOINT rPinky2
                {
                  OFFSET -1.82734 -0.647385 -0.700984
                  CHANNELS 3 Zrotation Xrotation Yrotation
                  End Site
                  {
                    OFFSET -1.69225 -0.51767 -0.607171
                  }
                }
              }
            }
          }
        }
      }
      JOINT lCollar
      {
        OFFSET 2.68224 19.2634 -4.8768
        CHANNELS 3 Zrotation Xrotation Yrotation
        JOINT lShldr
        {
          OFFSET 8.77824 -1.95073 1.46304
          CHANNELS 3 Zrotation Xrotation Yrotation
          JOINT lForeArm
          {
            OFFSET 28.1742 -1.7115 0.48768
            CHANNELS 3 Zrotation Xrotation Yrotation
            JOINT lHand
            {
              OFFSET 22.5879 0.773209 7.07136
              CHANNELS 3 Zrotation Xrotation Yrotation
              JOINT lThumb1
              {
                OFFSET 1.2192 -0.487915 3.41376
                CHANNELS 3 Zrotation Xrotation Yrotation
                JOINT lThumb2
                {
                  OFFSET 3.37035 -0.52449 3.41376
                  CHANNELS 3 Zrotation Xrotation Yrotation
                  End Site
                  {
                    OFFSET 1.78271 -1.18214 1.43049
                  }
                }
              }
              JOINT lIndex1
              {
                OFFSET 7.75947 0.938293 5.60832
                CHANNELS 3 Zrotation Xrotation Yrotation
                JOINT lIndex2
                {
                  OFFSET 2.54057 -0.884171 1.56538
                  CHANNELS 3 Zrotation Xrotation Yrotation
                  End Site
                  {
                    OFFSET 1.62519 -0.234802 1.16502
                  }
                }
              }
              JOINT lMid1
              {
                OFFSET 8.24714 1.18213 3.41376
                CHANNELS 3 Zrotation Xrotation Yrotation
                JOINT lMid2
                {
                  OFFSET 3.10165 -0.590103 1.0647
                  CHANNELS 3 Zrotation Xrotation Yrotation
                  End Site
                  {
                    OFFSET 2.48547 -0.328903 0.83742
                  }
                }
              }
              JOINT lRing1
              {
                OFFSET 8.82822 0.546677 1.51678
                CHANNELS 3 Zrotation Xrotation Yrotation
                JOINT lRing2
                {
                  OFFSET 2.60934 -0.819778 -0.0198488
                  CHANNELS 3 Zrotation Xrotation Yrotation
                  End Site
                  {
                    OFFSET 2.33842 -0.294052 0.168128
                  }
                }
              }
              JOINT lPinky1
              {
                OFFSET 8.27202 -0.0477905 -0.4584
                CHANNELS 3 Zrotation Xrotation Yrotation
                JOINT lPinky2
                {
                  OFFSET 1.82734 -0.647385 -0.700984
                  CHANNELS 3 Zrotation Xrotation Yrotation
                  End Site
                  {
                    OFFSET 1.69225 -0.51767 -0.607171
                  }
                }
              }
            }
          }
        }
      }
    }
  }
  JOINT rButtock
  {
    OFFSET -8.77824 4.35084 1.2192
    CHANNELS 3 Zrotation Xrotation Yrotation
    JOINT rThigh
    {
      OFFSET 0 -1.70687 -2.19456
      CHANNELS 3 Zrotation Xrotation Yrotation
      JOINT rShin
      {
        OFFSET 0 -36.8199 0.73152
        CHANNELS 3 Zrotation Xrotation Yrotation
        JOINT rFoot
        {
          OFFSET 0.73152 -45.1104 -5.12064
          CHANNELS 3 Zrotation Xrotation Yrotation
          End Site
          {
            OFFSET -1.1221 -3.69964 12.103
          }
        }
      }
    }
  }
  JOINT lButtock
  {
    OFFSET 8.77824 4.35084 1.2192
    CHANNELS 3 Zrotation Xrotation Yrotation
    JOINT lThigh
    {
      OFFSET 0 -1.70687 -2.19456
      CHANNELS 3 Zrotation Xrotation Yrotation
      JOINT lShin
      {
        OFFSET 0 -36.8199 0.73152
        CHANNELS 3 Zrotation Xrotation Yrotation
        JOINT lFoot
        {
          OFFSET -0.73152 -45.1104 -5.12064
          CHANNELS 3 Zrotation Xrotation Yrotation
          End Site
          {
            OFFSET 1.1221 -3.69964 12.103
          }
        }
      }
    }
  }
}
MOTION
Frames:	9
Frame Time:	0.00833333
12.6515 84.4292 -175.356 0.0 0.0 0.0 -0.937504 -0.00467891 -0.0260744 -0.258765 -0.0054577 -0.0448331 -1.85928e-15 7.95139e-16 1.61513e-16 -5.83309e-15 9.54166e-15 4.42606e-16 -0.0 0.0 0.0 -0.0 0.0 0.0 -9.95254e-16 4.85314e-18 1.49089e-16 -1.83221e-14 -1.86361e-17 2.5842e-15 -3.50358e-13 1.11717e-13 4.77083e-14 -4.0461e-12 -7.6383e-14 2.8625e-13 -9.53986e-12 7.8046e-14 7.18805e-13 -1.64789e-11 1.33583e-13 1.21179e-12 -9.53252e-12 7.83212e-14 7.09264e-13 7.73091 5.47488 0.417314 -9.53908e-12 7.82218e-14 7.06083e-13 2.90554 0.965183 0.102902 -9.53041e-12 7.82218e-14 7.09264e-13 10.2786 0.731801 0.0259123 -9.53868e-12 7.99114e-14 7.02903e-13 2.22167 -0.733487 -0.20892 -1.09205e-15 4.27076e-18 -4.96962e-17 -2.2638e-14 8.07563e-17 5.96354e-16 -3.55576e-13 -9.95911e-14 2.54444e-14 -4.06173e-12 1.32987e-13 3.02153e-13 -9.58091e-12 7.21418e-14 7.06083e-13 -1.65484e-11 1.24042e-13 1.23326e-12 -9.58778e-12 7.55382e-14 7.18805e-13 -7.73091 5.47488 -0.417314 -9.58261e-12 7.2457e-14 7.02903e-13 -2.90554 0.965183 -0.102902 -9.59548e-12 7.27552e-14 7.07673e-13 -10.2786 0.731801 -0.0259123 -9.58401e-12 7.23576e-14 7.09264e-13 -2.22167 -0.733487 0.20892 -2.03217e-16 0.0 -3.88251e-19 -0.229314 -1.95204 -0.0134901 -0.0090975 -2.01822 -0.0753402 -0.480904 3.96951 0.135129 2.03217e-16 0.0 3.88251e-19 -1.19847 -5.36329 0.104964 4.36045e-05 4.16076 -0.02119 0.495421 1.2019 -0.0808342
11.4326 83.2464 -173.983 -1.9669 -6.061 -5.3321 0.429683 5.29394 -0.263055 0.744922 -3.10827 0.0361302 -0.841923 1.40305 -0.602477 -0.596808 -1.68525 -1.07646 -0.0 0.0 0.0 -0.0 0.0 0.0 -3.06755e-14 7.41098e-14 6.85609e-14 16.7432 -11.9535 -0.722331 -12.3378 -9.30593 13.5896 0.854309 -20.7657 -2.27091 1.87232e-10 2.28999e-11 2.78402e-11 3.17937e-10 3.876e-11 6.00541e-11 1.87239e-10 2.28997e-11 2.78316e-11 7.73091 5.47488 0.417314 1.87232e-10 2.28998e-11 2.78338e-11 2.90554 0.965183 0.102902 1.87239e-10 2.28999e-11 2.78341e-11 10.2786 0.731801 0.0259123 1.87232e-10 2.29015e-11 2.78323e-11 2.22167 -0.733487 -0.20892 -3.07627e-14 7.41093e-14 6.83474e-14 -20.3956 8.15146 3.90381 9.16426 -6.03002 -11.7186 -0.0027712 -1.19302 0.167544 3.08811e-10 4.10017e-10 -1.30257e-10 5.3469e-10 7.11133e-10 -2.22899e-10 3.08805e-10 4.10021e-10 -1.30247e-10 -7.73091 5.47488 -0.417314 3.08811e-10 4.1002e-10 -1.30259e-10 -2.90554 0.965183 -0.102902 3.08802e-10 4.10021e-10 -1.30255e-10 -10.2786 0.731801 -0.0259123 3.08809e-10 4.1002e-10 -1.30254e-10 -2.22167 -0.733487 0.20892 -2.03217e-16 0.0 -3.88251e-19 1.63763 -3.54953 -0.236525 0.0229637 7.12317 0.0904105 -1.00082 -1.62898 -4.3395 2.03217e-16 0.0 3.88251e-19 1.26053 -9.02138 -0.200765 0.00844454 15.4739 -0.183628 0.621818 -2.63765 0.894472
11.3877 83.2494 -173.98 -1.9315 -6.0871 -5.373 1.91955 10.885 -0.524423 1.82187 -6.39577 0.121833 -1.70265 2.92107 -1.23698 -1.29744 -3.48446 -2.2121 -0.0 0.0 0.0 -0.0 0.0 0.0 -6.3453e-14 1.57067e-13 1.43892e-13 34.0684 -24.5553 -1.61847 -20.5815 -17.3732 29.022 -0.612847 -42.6049 -5.93978 4.04099e-10 4.89936e-11 6.02101e-11 6.86277e-10 8.27489e-11 1.29232e-10 4.04106e-10 4.89928e-11 6.02025e-11 7.73091 5.47488 0.417314 4.041e-10 4.89931e-11 6.02105e-11 2.90554 0.965183 0.102902 4.04105e-10 4.89933e-11 6.02077e-11 10.2786 0.731801 0.0259123 4.04099e-10 4.8995e-11 6.02107e-11 2.22167 -0.733487 -0.20892 -6.35311e-14 1.57067e-13 1.43662e-13 -43.2168 16.6405 8.31686 16.1973 -11.5517 -24.4939 0.00201178 -2.48234 0.348868 6.52291e-10 8.51991e-10 -2.86125e-10 1.1294e-09 1.47779e-09 -4.89872e-10 6.52286e-10 8.51997e-10 -2.86118e-10 -7.73091 5.47488 -0.417314 6.52292e-10 8.51999e-10 -2.86126e-10 -2.90554 0.965183 -0.102902 6.52286e-10 8.51998e-10 -2.86122e-10 -10.2786 0.731801 -0.0259123 6.52289e-10 8.51997e-10 -2.86123e-10 -2.22167 -0.733487 0.20892 -2.03217e-16 0.0 -3.88251e-19 3.5992 -5.242 -0.470957 -0.00259045 16.7943 0.275971 -2.50322 -7.46375 -9.14128 2.03217e-16 0.0 3.88251e-19 3.81683 -12.8698 -0.537401 0.0955613 27.4445 -0.385324 0.899557 -6.69621 1.94155
11.1653 83.2398 -174.08 -2.6341 -6.1406 -5.1706 3.3001 15.89 -0.762799 2.77887 -9.31385 0.200541 -2.43706 4.2073 -1.81177 -1.98091 -5.04861 -3.24057 -0.0 0.0 0.0 -0.0 0.0 0.0 -9.00359e-14 2.2232e-13 2.05385e-13 49.1467 -35.8349 -2.61531 -24.253 -21.5157 43.9574 -6.97355 -61.6742 -13.5226 5.80775e-10 6.85436e-11 8.2083e-11 9.86768e-10 1.16013e-10 1.77739e-10 5.80781e-10 6.85424e-11 8.20763e-11 7.73091 5.47488 0.417314 5.80775e-10 6.85429e-11 8.20893e-11 2.90554 0.965183 0.102902 5.80778e-10 6.85432e-11 8.20837e-11 10.2786 0.731801 0.0259123 5.80774e-10 6.85448e-11 8.20911e-11 2.22167 -0.733487 -0.20892 -9.01039e-14 2.22319e-13 2.05142e-13 -64.759 23.9787 12.7054 20.4018 -15.0508 -36.3944 0.0126527 -3.57893 0.503506 9.45596e-10 1.22991e-09 -3.92182e-10 1.63717e-09 2.13315e-09 -6.71162e-10 9.45592e-10 1.22991e-09 -3.92178e-10 -7.73091 5.47488 -0.417314 9.45599e-10 1.22992e-09 -3.92182e-10 -2.90554 0.965183 -0.102902 9.45596e-10 1.22992e-09 -3.92179e-10 -10.2786 0.731801 -0.0259123 9.45595e-10 1.22991e-09 -3.9218e-10 -2.22167 -0.733487 0.20892 -2.03217e-16 0.0 -3.88251e-19 5.33397 -6.74411 -0.685995 -0.0839382 25.4053 0.46466 -4.68633 -12.4909 -13.611 2.03217e-16 0.0 3.88251e-19 6.05697 -16.336 -0.837674 0.264488 38.0986 -0.620944 1.2717 -10.3049 2.88884
11.2672 83.3261 -173.863 -2.1458 -6.1551 -5.4249 4.30662 19.4308 -0.918656 3.41729 -11.3084 0.259317 -2.92118 4.91588 -2.23272 -2.48475 -6.03193 -3.98996 -0.0 0.0 0.0 -0.0 0.0 0.0 -1.01132e-13 2.43313e-13 2.3228e-13 59.4613 -43.8358 -3.43117 -25.4434 -22.082 54.5683 -22.2751 -73.9752 -29.2962 6.56969e-10 7.17342e-11 7.77137e-11 1.11764e-09 1.22464e-10 1.74571e-10 6.56974e-10 7.1733e-11 7.77073e-11 7.73091 5.47488 0.417314 6.56969e-10 7.17335e-11 7.77232e-11 2.90554 0.965183 0.102902 6.56971e-10 7.1734e-11 7.77161e-11 10.2786 0.731801 0.0259123 6.56967e-10 7.17354e-11 7.77264e-11 2.22167 -0.733487 -0.20892 -1.01187e-13 2.43312e-13 2.32031e-13 -80.4726 28.9008 16.078 22.4155 -16.3943 -44.928 0.0216197 -4.19381 0.590467 1.11346e-09 1.44767e-09 -3.73712e-10 1.92755e-09 2.51028e-09 -6.38247e-10 1.11346e-09 1.44768e-09 -3.73709e-10 -7.73091 5.47488 -0.417314 1.11347e-09 1.44768e-09 -3.73712e-10 -2.90554 0.965183 -0.102902 1.11347e-09 1.44768e-09 -3.7371e-10 -10.2786 0.731801 -0.0259123 1.11347e-09 1.44768e-09 -3.73712e-10 -2.22167 -0.733487 0.20892 -2.03217e-16 0.0 -3.88251e-19 6.52785 -7.77068 -0.849675 -0.179877 31.3665 0.618189 -6.69569 -15.8358 -16.8976 2.03217e-16 0.0 3.88251e-19 7.5965 -18.8487 -1.02459 0.45611 45.4626 -0.840646 1.59418 -12.8009 3.54205
11.1996 83.3448 -173.849 -2.4028 -6.2228 -5.3637 4.74784 20.9572 -0.913781 3.57191 -11.9743 0.292862 -3.06069 4.67725 -2.45401 -2.66938 -6.13595 -4.37402 -0.0 0.0 0.0 -0.0 0.0 0.0 -9.02864e-14 1.93528e-13 2.07348e-13 63.785 -47.3782 -3.48295 -25.766 -21.7271 58.6111 -36.2854 -77.8661 -43.3986 6.11029e-10 5.06794e-11 4.09838e-11 1.04266e-09 8.97898e-11 1.07481e-10 6.11034e-10 5.06791e-11 4.09771e-11 7.73091 5.47488 0.417314 6.11029e-10 5.06792e-11 4.09929e-11 2.90554 0.965183 0.102902 6.11032e-10 5.068e-11 4.09856e-11 10.2786 0.731801 0.0259123 6.11026e-10 5.06809e-11 4.09972e-11 2.22167 -0.733487 -0.20892 -9.0322e-14 1.93524e-13 2.07103e-13 -86.5747 30.8298 17.1953 23.0711 -16.6643 -48.3543 0.0210528 -4.08458 0.57505 1.13712e-09 1.48295e-09 -1.43027e-10 1.96782e-09 2.5699e-09 -2.39959e-10 1.13711e-09 1.48296e-09 -1.43022e-10 -7.73091 5.47488 -0.417314 1.13712e-09 1.48296e-09 -1.43028e-10 -2.90554 0.965183 -0.102902 1.13712e-09 1.48296e-09 -1.43026e-10 -10.2786 0.731801 -0.0259123 1.13712e-09 1.48296e-09 -1.4303e-10 -2.22167 -0.733487 0.20892 -2.03217e-16 0.0 -3.88251e-19 6.98158 -8.13875 -0.95483 -0.22687 33.6253 0.684092 -7.60028 -17.0742 -18.2632 2.03217e-16 0.0 3.88251e-19 8.203 -20.0417 -1.04245 0.551641 48.248 -0.941456 1.71062 -13.7503 3.73164
11.2084 83.3616 -173.777 -2.3241 -6.2032 -5.3806 4.77415 21.0432 -0.790173 3.38011 -11.693 0.307599 -2.96243 3.7691 -2.53154 -2.61147 -5.61676 -4.49374 -0.0 0.0 0.0 -0.0 0.0 0.0 -6.37796e-14 9.36069e-14 1.45557e-13 64.0072 -47.7348 -2.83705 -25.726 -21.7695 58.1414 -33.563 -77.2987 -40.652 4.76968e-10 1.23702e-11 -1.90692e-11 8.19158e-10 2.92442e-11 -5.66884e-12 4.76972e-10 1.23714e-11 -1.90768e-11 7.73091 5.47488 0.417314 4.76967e-10 1.23709e-11 -1.90632e-11 2.90554 0.965183 0.102902 4.76972e-10 1.23722e-11 -1.90696e-11 10.2786 0.731801 0.0259123 4.76964e-10 1.23722e-11 -1.90581e-11 2.22167 -0.733487 -0.20892 -6.37915e-14 9.35982e-14 1.45324e-13 -85.4721 30.7215 16.4915 23.0455 -16.7119 -48.112 0.0142875 -3.4605 0.4869 1.05626e-09 1.3859e-09 2.37436e-10 1.82685e-09 2.3993e-09 4.16193e-10 1.05626e-09 1.3859e-09 2.37446e-10 -7.73091 5.47488 -0.417314 1.05627e-09 1.3859e-09 2.37434e-10 -2.90554 0.965183 -0.102902 1.05626e-09 1.3859e-09 2.37436e-10 -10.2786 0.731801 -0.0259123 1.05627e-09 1.3859e-09 2.3743e-10 -2.22167 -0.733487 0.20892 -2.03217e-16 0.0 -3.88251e-19 6.90955 -8.03621 -1.01691 -0.219373 33.2393 0.67436 -7.50905 -16.887 -18.176 2.03217e-16 0.0 3.88251e-19 8.15241 -20.2917 -0.93536 0.535176 47.7623 -0.92048 1.65105 -13.5972 3.5815
11.2382 83.3878 -173.697 -2.1911 -6.0687 -5.3336 4.6268 20.4976 -0.662942 3.09635 -11.0899 0.307598 -2.80533 2.8168 -2.52218 -2.46783 -4.96185 -4.4555 -0.0 0.0 0.0 -0.0 0.0 0.0 -3.14271e-14 -1.22653e-14 7.44499e-14 62.4013 -46.639 -2.06814 -25.54 -21.9646 55.8653 -24.9611 -74.9114 -31.9806 2.77994e-10 -3.06928e-11 -9.54575e-11 4.85624e-10 -3.9909e-11 -1.50719e-10 2.77997e-10 -3.06903e-11 -9.54661e-11 7.73091 5.47488 0.417314 2.77993e-10 -3.06913e-11 -9.54552e-11 2.90554 0.965183 0.102902 2.78e-10 -3.06897e-11 -9.54603e-11 10.2786 0.731801 0.0259123 2.77989e-10 -3.06903e-11 -9.54494e-11 2.22167 -0.733487 -0.20892 -3.14169e-14 -1.2278e-14 7.42329e-14 -81.6582 29.7314 15.2497 22.7557 -16.6828 -46.4011 0.00837139 -2.71012 0.38113 8.83378e-10 1.16916e-09 6.17206e-10 1.52664e-09 2.02139e-09 1.07071e-09 8.83367e-10 1.16915e-09 6.17222e-10 -7.73091 5.47488 -0.417314 8.83377e-10 1.16916e-09 6.17204e-10 -2.90554 0.965183 -0.102902 8.83371e-10 1.16915e-09 6.17206e-10 -10.2786 0.731801 -0.0259123 8.83383e-10 1.16916e-09 6.17198e-10 -2.22167 -0.733487 0.20892 -2.03217e-16 0.0 -3.88251e-19 6.61934 -7.73414 -1.0374 -0.190438 31.7852 0.634581 -7.01841 -16.1441 -17.4954 2.03217e-16 0.0 3.88251e-19 7.82927 -20.1409 -0.771876 0.474394 45.9255 -0.850727 1.5334 -12.9988 3.32586
11.2631 83.4198 -173.631 -2.0658 -5.9862 -5.2297 4.54123 20.1294 -0.645434 2.9759 -10.7907 0.297053 -2.76885 2.44571 -2.48126 -2.39641 -4.65843 -4.36461 -0.0 0.0 0.0 -0.0 0.0 0.0 -3.04388e-15 -7.99041e-14 2.15681e-14 61.3088 -45.8361 -1.70786 -25.4193 -22.0267 54.4779 -21.1069 -73.3751 -28.0789 3.73171e-11 -6.60092e-11 -1.81193e-10 8.05662e-11 -9.84064e-11 -3.1351e-10 3.73198e-11 -6.60065e-11 -1.81203e-10 7.73091 5.47488 0.417314 3.73156e-11 -6.60074e-11 -1.81193e-10 2.90554 0.965183 0.102902 3.73243e-11 -6.60057e-11 -1.81197e-10 10.2786 0.731801 0.0259123 3.73113e-11 -6.60065e-11 -1.81187e-10 2.22167 -0.733487 -0.20892 -3.01917e-15 -7.9918e-14 2.13694e-14 -79.5912 29.0425 14.7426 22.5932 -16.6746 -45.4243 0.00605945 -2.22205 0.312447 6.30928e-10 8.45379e-10 8.45814e-10 1.08919e-09 1.45908e-09 1.4641e-09 6.30916e-10 8.45371e-10 8.45834e-10 -7.73091 5.47488 -0.417314 6.30926e-10 8.4537e-10 8.45811e-10 -2.90554 0.965183 -0.102902 6.30919e-10 8.45369e-10 8.45814e-10 -10.2786 0.731801 -0.0259123 6.30935e-10 8.45372e-10 8.45805e-10 -2.22167 -0.733487 0.20892 -2.03217e-16 0.0 -3.88251e-19 6.41688 -7.50357 -1.01802 -0.173375 30.8397 0.610468 -6.7352 -15.7101 -17.0835 2.03217e-16 0.0 3.88251e-19 7.61945 -20.1318 -0.620381 0.436707 44.658 -0.804978 1.47025 -12.6132 3.19777
